<svg id="eTmJrNcpWkR1" xmlns="http://www.w3.org/2000/svg" xmlns:xlink="http://www.w3.org/1999/xlink" viewBox="0 0 200 200" shape-rendering="geometricPrecision" text-rendering="geometricPrecision">
<style><![CDATA[
#eTmJrNcpWkR2_tr {animation: eTmJrNcpWkR2_tr__tr 2800ms linear 1 normal forwards}@keyframes eTmJrNcpWkR2_tr__tr { 0% {transform: translate(99.999999px,99.949996px) rotate(10deg);animation-timing-function: cubic-bezier(0.42,0,1,1)} 21.428571% {transform: translate(99.999999px,99.949996px) rotate(0deg)} 100% {transform: translate(99.999999px,99.949996px) rotate(0deg)}} #eTmJrNcpWkR2_ts {animation: eTmJrNcpWkR2_ts__ts 2800ms linear 1 normal forwards}@keyframes eTmJrNcpWkR2_ts__ts { 0% {transform: scale(0.059606,0.059606);animation-timing-function: cubic-bezier(0.175,0.885,0.32,1.275)} 21.428571% {transform: scale(0.882667,0.882667)} 100% {transform: scale(0.882667,0.882667)}}
]]></style>
<defs><linearGradient id="eTmJrNcpWkR3-fill" x1="100" y1="3.696" x2="100" y2="200.7302" spreadMethod="pad" gradientUnits="userSpaceOnUse" gradientTransform="translate(0 0)"><stop id="eTmJrNcpWkR3-fill-0" offset="0%" stop-color="#ef5050"/><stop id="eTmJrNcpWkR3-fill-1" offset="100%" stop-color="#ef6950"/></linearGradient></defs><g id="eTmJrNcpWkR2_tr" transform="translate(99.999999,99.949996) rotate(10)"><g id="eTmJrNcpWkR2_ts" transform="scale(0.059606,0.059606)"><g transform="translate(-99.999999,-99.949996)"><path d="M55.5,187.7L12.3,144.4c-3.7-3.7-5.8-8.7-5.8-14v-61c0-5.2,2.1-10.3,5.8-14L55.5,12.2c3.7-3.7,8.7-5.8,14-5.8h61c5.2,0,10.3,2.1,14,5.8l43.2,43.2c3.7,3.7,5.8,8.7,5.8,14v61c0,5.2-2.1,10.3-5.8,14l-43.2,43.3c-3.7,3.7-8.7,5.8-14,5.8h-61c-5.2,0-10.3-2.1-14-5.8Z" fill="url(#eTmJrNcpWkR3-fill)"/><path d="M100,124.7c-4.7,0-6.6-3.7-6.6-8.3L91.5,65.8c0-4.6,3.8-8.3,8.5-8.3s8.5,3.7,8.5,8.3l-1.9,50.6c0,4.6-1.9,8.3-6.6,8.3Z" fill="#fff"/><circle r="7.2" transform="translate(100 138.5)" fill="#fff"/></g></g></g></svg>
