<svg id="ehXxBzRdmi81" xmlns="http://www.w3.org/2000/svg" xmlns:xlink="http://www.w3.org/1999/xlink" viewBox="0 0 200 200" shape-rendering="geometricPrecision" text-rendering="geometricPrecision">
<style><![CDATA[
#ehXxBzRdmi82_tr {animation: ehXxBzRdmi82_tr__tr 700ms linear 1 normal forwards}@keyframes ehXxBzRdmi82_tr__tr { 0% {transform: translate(100.05001px,99.987505px) rotate(10deg);animation-timing-function: cubic-bezier(0.42,0,1,1)} 85.714286% {transform: translate(100.05001px,99.987505px) rotate(0deg)} 100% {transform: translate(100.05001px,99.987505px) rotate(0deg)}} #ehXxBzRdmi82_ts {animation: ehXxBzRdmi82_ts__ts 700ms linear 1 normal forwards}@keyframes ehXxBzRdmi82_ts__ts { 0% {transform: scale(0.054291,0.054291);animation-timing-function: cubic-bezier(0.175,0.885,0.32,1.275)} 85.714286% {transform: scale(0.9106,0.9106)} 100% {transform: scale(0.9106,0.9106)}}
]]></style>
<defs><linearGradient id="ehXxBzRdmi83-fill" x1="100" y1="205.846" x2="100" y2="-6.6318" spreadMethod="pad" gradientUnits="userSpaceOnUse" gradientTransform="translate(0 0)"><stop id="ehXxBzRdmi83-fill-0" offset="0%" stop-color="#38c063"/><stop id="ehXxBzRdmi83-fill-1" offset="100%" stop-color="#38b09a"/></linearGradient></defs><g id="ehXxBzRdmi82_tr" transform="translate(100.05001,99.987505) rotate(10)"><g id="ehXxBzRdmi82_ts" transform="scale(0.054291,0.054291)"><g transform="translate(-100.05001,-99.987505)"><path d="M194.9,91c-1.9-2.8-4-5.4-5.9-8.1-2.8-3.9-3.9-8.2-3.4-13c.5-4.1.8-8.2,1.1-12.2.3-5.3-2.1-9.2-6.7-11.7-2.5-1.3-5.1-2.6-7.8-3.6-7.2-2.5-12-7.3-14.5-14.5-1-2.9-2.5-5.8-4-8.5-2.2-3.9-5.6-6.1-10.2-6-3.3.1-6.7.3-10,.8-6.6,1-12.6.2-17.9-4.3-2-1.7-4.1-3.2-6.3-4.6-6.9-4.8-11.5-4.8-18.4.1-2.6,1.8-5.1,3.7-7.6,5.6-4,2.9-8.4,4.1-13.3,3.6-4.6-.5-9.2-.8-13.9-1-3.7-.1-6.6,1.7-8.7,4.7-1,1.4-1.9,3-2.6,4.6-1.3,2.8-2.5,5.6-3.7,8.4-2,4.5-5.2,7.8-9.8,9.7-1.9.8-3.9,1.6-5.8,2.5-2.3,1.1-4.6,2.1-6.7,3.5-3.3,2.1-5.3,5.2-5.2,9.2.1,3.5.2,7,.7,10.4c1.1,6.8.1,12.9-4.5,18.3-1.3,1.6-2.5,3.3-3.7,4.9-5.8,8-5.8,12.5,0,20.4c1.7,2.3,3.4,4.6,5.1,6.9c2.8,3.9,4,8.2,3.4,13-.5,3.7-.8,7.5-1.1,11.2-.6,6.4,2.3,10.6,7.9,13.3.7.4,1.5.7,2.2,1.1c2.6,1.2,5.3,2.3,7.9,3.4c4.5,1.9,7.7,5.1,9.6,9.6.9,2,1.7,4,2.6,6c1.1,2.3,2.2,4.7,3.6,6.9c2.1,3.2,5.1,5,8.9,4.9c3.5-.1,7-.2,10.4-.7c6.8-1.1,13-.1,18.4,4.5c2,1.7,4.1,3.2,6.3,4.6c6.6,4.5,11.2,4.5,17.7-.1c2.8-1.9,5.4-4,8.1-5.9c3.9-2.8,8.1-4,12.9-3.4c3.8.5,7.6.8,11.4,1.1c6.2.5,10.6-2.2,13.2-7.7c1.4-3,2.8-6.1,4.1-9.2c2.1-5.3,5.8-8.9,11.1-11.1c3.9-1.6,7.8-3.4,11.4-5.5c3.6-2,5.5-5.4,5.4-9.5-.1-3.4-.2-6.8-.7-10.2-1-6.7-.2-12.8,4.4-18.1c1.7-2,3.2-4.1,4.6-6.3c4.6-6.6,4.6-11.3,0-18Z" fill="url(#ehXxBzRdmi83-fill)"/><path d="M90.7,130c0,0-.1,0-.1,0-2.2,0-4.2-1.4-5.8-2.9l-25.1-26c-3.1-3.2-3.1-8.5.2-11.7c3.2-3.1,8.4-3.1,11.6.1l19.3,19.8l37.8-36.9c3.2-3.2,8.4-3.1,11.6.1s3.1,8.4-.1,11.5L96.5,127c-1.6,1.7-3.7,3-5.8,3Z" fill="#fff"/></g></g></g></svg>
